<?xml version="1.0" encoding="utf-8"?>
<!-- Generator: Adobe Illustrator 24.2.1, SVG Export Plug-In . SVG Version: 6.00 Build 0)  -->
<svg version="1.1" id="Capa_1" xmlns="http://www.w3.org/2000/svg" xmlns:xlink="http://www.w3.org/1999/xlink" x="0px" y="0px"
	 viewBox="0 0 237.25 126.3" style="enable-background:new 0 0 237.25 126.3;" xml:space="preserve">
<style type="text/css">
	.st0{fill:#FFFFFF;}
</style>
<g>
	<g>
		<g>
			<path class="st0" d="M57.31,79.01c0,5.12-0.7,6.02-4.67,6.02H32.25V54.58H45.9c3.79,0,4.67,0.6,4.67,6.47v0.71h1.87V45.53h-1.87
				v0.71c0,5.88-0.89,6.47-4.67,6.47H32.25v-30h19.04c3.98,0,4.67,0.9,4.67,6.02v0.71h1.87v-8.6H16.46v1.87h0.71
				c5.88,0,6.47,0.89,6.47,4.67v52.97c0,3.79-0.6,4.67-6.47,4.67h-0.71v1.87h42.72V78.3h-1.87V79.01z"/>
			<path class="st0" d="M105.25,69.86c-2.39-9.63-8.88-13.71-13.17-15.39c9.9-1.86,16.56-8.17,16.56-16.1
				c0-5.6-2.7-10.26-7.79-13.47c-4.1-2.58-9.54-4.06-14.91-4.06h-24.5v1.87h0.71c5.88,0,6.47,0.89,6.47,4.67v52.97
				c0,3.79-0.6,4.67-6.47,4.67h-0.71v1.87H84.4v-1.87h-0.71c-5.87,0-6.47-0.89-6.47-4.67V55.03h8.71c3.42,0,8.1,4.1,10.98,15.62
				c2.7,10.78,8.97,16.25,18.65,16.25h0.71v-1.87h-0.71C111.04,85.03,107.13,77.41,105.25,69.86z M77.22,22.71h8.71
				c4.6,0,14.1,3.83,14.1,15.67c0,7.32-7.12,14.78-14.1,14.78h-8.71V22.71z"/>
			<path class="st0" d="M163.76,77.63c-4.53,5.42-10.59,8.75-17.26,8.75c-13.96,0-25.32-14.58-25.32-32.51
				c0-17.92,11.36-32.5,25.32-32.5s25.32,14.58,25.32,32.5c0,5.52-1.08,10.73-2.98,15.29c0.2,3.38,0.44,6.64,1.09,9.83
				c6.73-6.28,10.94-15.21,10.94-25.12c0-18.96-15.42-34.38-34.38-34.38s-34.38,15.42-34.38,34.38s15.42,34.38,34.38,34.38
				c6.85,0,13.24-2.02,18.61-5.49C164.54,81.08,164.1,79.37,163.76,77.63z"/>
		</g>
		<path class="st0" d="M188.54,33.67c0-6.79,4.49-13.02,13.47-13.02c4.56,0,8.94,2.54,11.69,5.78c2.47,2.91,3.12,7.2,3.12,12.62
			h0.45V24.69h-0.45c0,5.29-0.98,3.9-1.89,2.63c-2.57-3.57-7.11-7.12-13.37-7.12c-10.32,0-19.24,5.98-18.85,15.71
			c0.72,18.33,36.72,19.46,36.72,41.62c0,6.16-2.52,11.95-7.21,15.97c-4.94,4.22-11.48,6.15-17.87,6.53
			c-8.06,0.48-15.72-2.63-20.71-9.08c-2.04-2.63-3.48-5.68-4.41-8.87c-1.55-5.35-1.65-10.88-2.02-16.38
			c-0.18-2.71-0.28-5.44-0.61-8.14c-0.67-5.52-3.22-9.94-7.98-12.95c-8.52-5.39-21.56-1.04-22.25,11.67
			c-0.3,5.53,1.55,10.36,4.93,14.67c0.69,0.88,1.39,1.75,2.17,2.72c-1.73,0.42-3.35,0.81-4.97,1.2c0,0.06-0.01,0.12-0.01,0.17
			c4.19,1.87,8.37,3.73,12.75,5.69c-1.76-4.48-3.44-8.74-5.12-13c-0.06,0-0.12,0-0.17,0c-0.47,1.6-0.94,3.2-1.44,4.9
			c-1.6-2.02-2.82-4.1-3.77-6.36c-1.4-3.33-2-6.77-1.46-10.36c0.48-3.13,1.77-5.85,4.38-7.78c4.39-3.25,10.49-2.88,14.68,0.82
			c3.06,2.7,4.44,6.2,4.85,10.15c0.5,4.87,0.95,9.74,1.44,14.61c0.31,3.12,0.99,6.18,2.03,9.13c2.44,6.92,7.19,12.08,13.82,15.18
			c7.47,3.49,17,3.11,24.56,0.13c6.19-2.44,11.6-6.35,15.24-11.99c2.44-3.89,3.74-8.41,3.75-13.01
			C224,51.63,188.54,46.64,188.54,33.67z"/>
	</g>
</g>
</svg>
